<svg xmlns="http://www.w3.org/2000/svg" width="166" height="166" viewBox="0 0 166 166">
  <g id="组_2491" data-name="组 2491" transform="translate(-1482 -2692)">
    <g id="椭圆_114" data-name="椭圆 114" transform="translate(1482 2692)" fill="none" stroke="#fff" stroke-width="3">
      <circle cx="83" cy="83" r="83" stroke="none"/>
      <circle cx="83" cy="83" r="81.5" fill="none"/>
    </g>
    <g id="组_2440" data-name="组 2440" transform="translate(963.437 2513.698)">
      <rect id="矩形_669" data-name="矩形 669" width="78.588" height="9.018" rx="3.126" transform="translate(562.563 265.179)" fill="none" stroke="#fff" stroke-miterlimit="10" stroke-width="1.985"/>
      <path id="路径_8972" data-name="路径 8972" d="M595.98,256.816V233.741h7.436v23.076" transform="translate(19.938 8.363)" fill="none" stroke="#fff" stroke-miterlimit="10" stroke-width="1.985"/>
      <rect id="矩形_670" data-name="矩形 670" width="78.588" height="9.018" rx="0.938" transform="translate(562.563 278.552)" fill="none" stroke="#fff" stroke-miterlimit="10" stroke-width="1.985"/>
      <rect id="矩形_671" data-name="矩形 671" width="70.437" height="11.306" rx="0.994" transform="translate(566.639 287.57)" fill="none" stroke="#fff" stroke-miterlimit="10" stroke-width="1.985"/>
      <path id="路径_8973" data-name="路径 8973" d="M611.751,252.39h8.116V230.1H588.3V252.39H599.9" transform="translate(15.358 6.192)" fill="none" stroke="#fff" stroke-linecap="round" stroke-linejoin="round" stroke-width="1.985"/>
      <path id="路径_8974" data-name="路径 8974" d="M596.895,256.4s2.512-21.967-15.267-21.967S566.361,256.4,566.361,256.4" transform="translate(2.193 8.778)" fill="none" stroke="#fff" stroke-miterlimit="10" stroke-width="1.985"/>
      <circle id="椭圆_115" data-name="椭圆 115" cx="10.049" cy="10.049" r="10.049" transform="translate(573.772 219.723)" fill="none" stroke="#fff" stroke-miterlimit="10" stroke-width="1.985"/>
    </g>
  </g>
</svg>
