<svg xmlns="http://www.w3.org/2000/svg" width="166" height="166" viewBox="0 0 166 166">
  <g id="组_2488" data-name="组 2488" transform="translate(-249 -2692)">
    <g id="椭圆_1" data-name="椭圆 1" transform="translate(249 2692)" fill="none" stroke="#fff" stroke-width="3">
      <circle cx="83" cy="83" r="83" stroke="none"/>
      <circle cx="83" cy="83" r="81.5" fill="none"/>
    </g>
    <g id="组_2443" data-name="组 2443" transform="translate(100.769 2514.092)">
      <g id="组_2441" data-name="组 2441" transform="translate(204.231 215.783)">
        <rect id="矩形_672" data-name="矩形 672" width="54.225" height="84.827" rx="1.315" fill="none" stroke="#fff" stroke-linecap="round" stroke-linejoin="round" stroke-width="1.89"/>
        <rect id="矩形_673" data-name="矩形 673" width="41.006" height="71.825" transform="translate(6.609 6.501)" fill="none" stroke="#fff" stroke-linecap="round" stroke-linejoin="round" stroke-width="1.89"/>
      </g>
      <g id="组_2442" data-name="组 2442" transform="translate(219.429 270.295)">
        <circle id="椭圆_116" data-name="椭圆 116" cx="7.548" cy="7.548" r="7.548" transform="translate(4.212)" fill="none" stroke="#fff" stroke-miterlimit="10" stroke-width="1.248"/>
        <path id="路径_8975" data-name="路径 8975" d="M229.741,272.18V259.833a2.956,2.956,0,0,0-3.019-3.019c-3.936,0-3.594,3.019-3.594,3.019V274.5s.035,3.72-1.726,1.869c0,0-2.572-2.856-2.875-3.164-.388-.391-2.445-1.581-3.6.288s2.664,6.605,3.7,8.231c1.359,2.125,7.081,9.6,11.106,9.6h8.34s5.463-.719,5.463-8.052V277.23s-.719-5.176-5.32-5.032S229.741,272.18,229.741,272.18Z" transform="translate(-214.719 -251.865)" stroke="#fff" stroke-miterlimit="10" stroke-width="1.248"/>
      </g>
    </g>
  </g>
</svg>
